<svg xmlns="http://www.w3.org/2000/svg" viewBox="0 0 24 24" fill="currentColor"><path d="M23.881 8.948c-.773-4.085-4.859-4.593-4.859-4.593H.723c-.604 0-.679.798-.679.798s-.082 7.324-.022 11.822c.164 2.424 2.586 2.672 2.586 2.672s8.267.023 11.966-.049c2.438-.426 2.683-2.566 2.683-2.566V13.88s3.473-.082 5.093-1.077c1.724-1.059 2.012-3.855 1.531-3.855zm-7.618 3.535v-6.72h2.766s2.586.246 2.668 3.197c.083 2.951-2.668 3.523-2.668 3.523h-2.766zm-5.789-.889s-.49 1.475-2.049 1.475c-1.558 0-2.049-1.475-2.049-1.475l-.328-3.606h4.754l-.328 3.606z"/></svg>
